<svg width="24" height="24" viewBox="0 0 24 24" fill="none" xmlns="http://www.w3.org/2000/svg">
<path d="M19.933 6.85888C20.0202 6.76648 20.1254 6.69287 20.2421 6.64256C20.3587 6.59224 20.4845 6.56629 20.6115 6.56629C20.7386 6.56629 20.8643 6.59224 20.981 6.64256C21.0976 6.69287 21.2028 6.76648 21.29 6.85888C21.665 7.24888 21.665 7.88088 21.29 8.27088L9.76002 20.2799C9.32413 20.7418 8.79847 21.1098 8.21527 21.3614C7.63208 21.6129 7.00364 21.7427 6.36852 21.7427C5.73339 21.7427 5.10495 21.6129 4.52176 21.3614C3.93856 21.1098 3.4129 20.7418 2.97702 20.2799C1.10402 18.3299 1.10402 15.1669 2.97702 13.2159L13.15 2.61988C13.4116 2.34271 13.727 2.12189 14.0769 1.97096C14.4268 1.82004 14.8039 1.74219 15.185 1.74219C15.5661 1.74219 15.9432 1.82004 16.2931 1.97096C16.6431 2.12189 16.9585 2.34271 17.22 2.61988C18.344 3.78988 18.344 5.68788 17.22 6.85888L8.40202 16.0399C8.31482 16.1321 8.20971 16.2056 8.09313 16.2558C7.97655 16.306 7.85095 16.3319 7.72402 16.3319C7.59708 16.3319 7.47148 16.306 7.3549 16.2558C7.23832 16.2056 7.13322 16.1321 7.04602 16.0399C6.8657 15.849 6.76524 15.5964 6.76524 15.3339C6.76524 15.0713 6.8657 14.8187 7.04602 14.6279L15.864 5.44488C16.0446 5.25399 16.1453 5.00117 16.1453 4.73838C16.1453 4.47559 16.0446 4.22278 15.864 4.03188C15.7768 3.93948 15.6716 3.86587 15.555 3.81556C15.4383 3.76524 15.3126 3.73929 15.1855 3.73929C15.0585 3.73929 14.9327 3.76524 14.8161 3.81556C14.6994 3.86587 14.5942 3.93948 14.507 4.03188L4.33202 14.6299C3.20902 15.7999 3.20902 17.6979 4.33202 18.8679C4.59357 19.1451 4.90898 19.3659 5.25891 19.5168C5.60885 19.6677 5.98592 19.7456 6.36702 19.7456C6.74811 19.7456 7.12519 19.6677 7.47512 19.5168C7.82505 19.3659 8.14047 19.1451 8.40202 18.8679L19.933 6.85888Z" fill="white"/>
</svg>
