<svg width="16" height="24" viewBox="0 0 16 24" fill="none" xmlns="http://www.w3.org/2000/svg">
<path d="M17.2969 12H18.9844C18.9844 13.6875 18.3906 15.1719 17.2031 16.4531C16.0469 17.7031 14.6406 18.4531 12.9844 18.7031V21.9844H11.0156V18.7031C9.35938 18.4531 7.9375 17.7031 6.75 16.4531C5.59375 15.1719 5.01562 13.6875 5.01562 12H6.70312C6.70312 13.4688 7.21875 14.6875 8.25 15.6562C9.3125 16.625 10.5625 17.1094 12 17.1094C13.4375 17.1094 14.6719 16.625 15.7031 15.6562C16.7656 14.6875 17.2969 13.4688 17.2969 12ZM14.1094 14.1094C13.5156 14.7031 12.8125 15 12 15C11.1875 15 10.4844 14.7031 9.89062 14.1094C9.29688 13.5156 9 12.8125 9 12V6C9 5.1875 9.29688 4.48438 9.89062 3.89062C10.4844 3.29688 11.1875 3 12 3C12.8125 3 13.5156 3.29688 14.1094 3.89062C14.7031 4.48438 15 5.1875 15 6V12C15 12.8125 14.7031 13.5156 14.1094 14.1094Z" fill="white"/>
</svg>
