<svg width="20" height="20" viewBox="0 0 20 20" fill="none" xmlns="http://www.w3.org/2000/svg">
<path d="M12.9883 8.88068L9.69663 5.58902C9.54483 5.43185 9.46083 5.22135 9.46273 5.00285C9.46463 4.78435 9.55227 4.57534 9.70678 4.42084C9.86128 4.26633 10.0703 4.17869 10.2888 4.17679C10.5073 4.17489 10.7178 4.25889 10.875 4.41068L15.5891 9.12485C15.6668 9.20206 15.7284 9.29386 15.7705 9.39497C15.8125 9.49609 15.8342 9.60451 15.8342 9.71402C15.8342 9.82352 15.8125 9.93195 15.7705 10.0331C15.7284 10.1342 15.6668 10.226 15.5891 10.3032L10.875 15.0174C10.7981 15.0969 10.7061 15.1604 10.6045 15.2041C10.5028 15.2478 10.3934 15.2708 10.2828 15.2717C10.1721 15.2727 10.0624 15.2516 9.96 15.2097C9.85758 15.1678 9.76454 15.1059 9.6863 15.0277C9.60805 14.9494 9.54618 14.8564 9.50428 14.754C9.46237 14.6516 9.44129 14.5418 9.44225 14.4312C9.44321 14.3205 9.4662 14.2112 9.50988 14.1095C9.55355 14.0078 9.61703 13.9159 9.69663 13.839L12.9883 10.5474H4.99996C4.77895 10.5474 4.56698 10.4596 4.4107 10.3033C4.25442 10.147 4.16663 9.93503 4.16663 9.71402C4.16663 9.493 4.25442 9.28104 4.4107 9.12476C4.56698 8.96848 4.77895 8.88068 4.99996 8.88068H12.9883Z" fill="white"/>
</svg>
