<svg width="24" height="24" viewBox="0 0 24 24" fill="none" xmlns="http://www.w3.org/2000/svg">
<path d="M8.41406 12.6571L12.3641 16.6071C12.5417 16.7965 12.6387 17.0477 12.6345 17.3074C12.6303 17.567 12.5252 17.8149 12.3415 17.9985C12.1578 18.1821 11.9098 18.287 11.6501 18.291C11.3905 18.295 11.1394 18.1979 10.9501 18.0201L5.29306 12.3641C5.19987 12.2714 5.12592 12.1613 5.07546 12.0399C5.025 11.9186 4.99902 11.7885 4.99902 11.6571C4.99902 11.5257 5.025 11.3956 5.07546 11.2742C5.12592 11.1529 5.19987 11.0427 5.29306 10.9501L10.9501 5.29308C11.0423 5.19757 11.1526 5.12139 11.2747 5.06898C11.3967 5.01657 11.5279 4.98898 11.6607 4.98783C11.7934 4.98668 11.9251 5.01198 12.048 5.06226C12.1709 5.11254 12.2826 5.18679 12.3765 5.28069C12.4703 5.37458 12.5446 5.48623 12.5949 5.60913C12.6452 5.73202 12.6705 5.8637 12.6693 5.99648C12.6682 6.12926 12.6406 6.26048 12.5882 6.38249C12.5358 6.50449 12.4596 6.61483 12.3641 6.70708L8.41406 10.6571H18.0001C18.2653 10.6571 18.5196 10.7624 18.7072 10.95C18.8947 11.1375 19.0001 11.3919 19.0001 11.6571C19.0001 11.9223 18.8947 12.1767 18.7072 12.3642C18.5196 12.5517 18.2653 12.6571 18.0001 12.6571H8.41406Z" fill="white"/>
</svg>
