<svg width="20" height="20" viewBox="0 0 20 20" fill="none" xmlns="http://www.w3.org/2000/svg">
<path d="M16.6667 3.3335H3.33335C2.41669 3.3335 1.67502 4.0835 1.67502 5.00016L1.66669 15.0002C1.66669 15.9168 2.41669 16.6668 3.33335 16.6668H16.6667C17.5834 16.6668 18.3334 15.9168 18.3334 15.0002V5.00016C18.3334 4.0835 17.5834 3.3335 16.6667 3.3335ZM16.3334 6.87516L10.4417 10.5585C10.175 10.7252 9.82502 10.7252 9.55835 10.5585L3.66669 6.87516C3.45835 6.74183 3.33335 6.51683 3.33335 6.27516C3.33335 5.71683 3.94169 5.3835 4.41669 5.67516L10 9.16683L15.5834 5.67516C16.0584 5.3835 16.6667 5.71683 16.6667 6.27516C16.6667 6.51683 16.5417 6.74183 16.3334 6.87516Z" fill="white"/>
</svg>
