<svg width="20" height="20" viewBox="0 0 20 20" fill="none" xmlns="http://www.w3.org/2000/svg">
<path d="M10 11.25C10.6904 11.25 11.25 10.6904 11.25 10C11.25 9.30964 10.6904 8.75 10 8.75C9.30964 8.75 8.75 9.30964 8.75 10C8.75 10.6904 9.30964 11.25 10 11.25Z" fill="#96A7AF"/>
<path d="M18.225 9.58331C17.6916 8.65831 14.7583 4.01664 9.77498 4.16664C5.16664 4.28331 2.49998 8.33331 1.77498 9.58331C1.70184 9.70999 1.66333 9.85369 1.66333 9.99998C1.66333 10.1463 1.70184 10.29 1.77498 10.4166C2.29998 11.325 5.10831 15.8333 10.0166 15.8333H10.225C14.8333 15.7166 17.5083 11.6666 18.225 10.4166C18.2981 10.29 18.3366 10.1463 18.3366 9.99998C18.3366 9.85369 18.2981 9.70999 18.225 9.58331ZM9.99998 12.9166C9.42311 12.9166 8.85921 12.7456 8.37956 12.4251C7.89992 12.1046 7.52608 11.6491 7.30533 11.1161C7.08457 10.5832 7.02681 9.99674 7.13935 9.43096C7.25189 8.86518 7.52968 8.34548 7.93758 7.93758C8.34548 7.52968 8.86518 7.25189 9.43096 7.13935C9.99674 7.02681 10.5832 7.08457 11.1161 7.30533C11.6491 7.52608 12.1046 7.89992 12.4251 8.37956C12.7456 8.8592 12.9166 9.42311 12.9166 9.99998C12.9166 10.7735 12.6094 11.5154 12.0624 12.0624C11.5154 12.6094 10.7735 12.9166 9.99998 12.9166Z" fill="#96A7AF"/>
</svg>
