<svg width="20" height="20" viewBox="0 0 20 20" fill="none" xmlns="http://www.w3.org/2000/svg">
<path d="M15 6.66683H14.1666V5.00016C14.1666 2.70016 12.3 0.833496 9.99998 0.833496C7.69998 0.833496 5.83331 2.70016 5.83331 5.00016V6.66683H4.99998C4.08331 6.66683 3.33331 7.41683 3.33331 8.3335V16.6668C3.33331 17.5835 4.08331 18.3335 4.99998 18.3335H15C15.9166 18.3335 16.6666 17.5835 16.6666 16.6668V8.3335C16.6666 7.41683 15.9166 6.66683 15 6.66683ZM9.99998 14.1668C9.08331 14.1668 8.33331 13.4168 8.33331 12.5002C8.33331 11.5835 9.08331 10.8335 9.99998 10.8335C10.9166 10.8335 11.6666 11.5835 11.6666 12.5002C11.6666 13.4168 10.9166 14.1668 9.99998 14.1668ZM12.5833 6.66683H7.41665V5.00016C7.41665 3.57516 8.57498 2.41683 9.99998 2.41683C11.425 2.41683 12.5833 3.57516 12.5833 5.00016V6.66683Z" fill="white"/>
</svg>
