<svg width="20" height="20" viewBox="0 0 20 20" fill="none" xmlns="http://www.w3.org/2000/svg">
<path d="M4.11458 13.4896C6.16319 12.6563 8.125 12.2396 10 12.2396C11.875 12.2396 13.8194 12.6563 15.8333 13.4896C17.8819 14.2882 18.9062 15.3472 18.9062 16.6667V18.9062H1.09375V16.6667C1.09375 15.3472 2.10069 14.2882 4.11458 13.4896ZM13.125 8.69792C12.2569 9.56597 11.2153 10 10 10C8.78472 10 7.74306 9.56597 6.875 8.69792C6.00694 7.82986 5.57292 6.78819 5.57292 5.57292C5.57292 4.35764 6.00694 3.31597 6.875 2.44792C7.74306 1.54514 8.78472 1.09375 10 1.09375C11.2153 1.09375 12.2569 1.54514 13.125 2.44792C13.9931 3.31597 14.4271 4.35764 14.4271 5.57292C14.4271 6.78819 13.9931 7.82986 13.125 8.69792Z" fill="white"/>
</svg>
