<svg width="20" height="20" viewBox="0 0 20 20" fill="none" xmlns="http://www.w3.org/2000/svg">
<path d="M12.9167 0.833496H6.24999C5.09999 0.833496 4.16666 1.76683 4.16666 2.91683V17.0835C4.16666 18.2335 5.09999 19.1668 6.24999 19.1668H12.9167C14.0667 19.1668 15 18.2335 15 17.0835V2.91683C15 1.76683 14.0667 0.833496 12.9167 0.833496ZM9.58332 18.3335C8.89166 18.3335 8.33332 17.7752 8.33332 17.0835C8.33332 16.3918 8.89166 15.8335 9.58332 15.8335C10.275 15.8335 10.8333 16.3918 10.8333 17.0835C10.8333 17.7752 10.275 18.3335 9.58332 18.3335ZM13.3333 15.0002H5.83332V3.3335H13.3333V15.0002Z" fill="white"/>
</svg>
