<?xml version="1.0" encoding="iso-8859-1"?>
<!-- Generator: Adobe Illustrator 19.0.0, SVG Export Plug-In . SVG Version: 6.00 Build 0)  -->
<svg version="1.1" id="Layer_1" xmlns="http://www.w3.org/2000/svg" xmlns:xlink="http://www.w3.org/1999/xlink" x="0px" y="0px"
	 viewBox="0 0 512 512" style="enable-background:new 0 0 512 512;" xml:space="preserve">
<path style="fill:#FF6638;" d="M256,0l-78.769,256L256,512c141.385,0,256-114.615,256-256S397.385,0,256,0z"/>
<path style="fill:#FF883E;" d="M0,256c0,141.385,114.615,256,256,256V0C114.615,0,0,114.615,0,256z"/>
<path style="fill:#FFAB58;" d="M258.431,33.781v444.438C379.859,476.925,478.242,377.732,478.242,256S379.859,35.075,258.431,33.781
	z"/>
<path style="fill:#FFCD71;" d="M258.431,33.781C361.247,35.322,444.484,134.414,444.484,256s-83.237,220.678-186.053,222.219
	c-0.81,0.011-1.62,0.023-2.431,0.023c-122.542,0-222.242-99.699-222.242-222.242S133.458,33.758,256,33.758
	C256.81,33.758,257.62,33.769,258.431,33.781z"/>
<g>
	<path style="fill:#FF6638;" d="M277.515,396.929c-8.677-27.448-13.076-56.114-13.076-85.204v-57.433H247.56v57.433
		c0,30.818,4.664,61.197,13.86,90.292c1.138,3.597,4.462,5.898,8.045,5.898c0.843,0,1.7-0.127,2.547-0.395
		C276.456,406.115,278.92,401.373,277.515,396.929z"/>
	<path style="fill:#FF6638;" d="M374.924,337.561c3.96-5.648,6.423-11.889,7.466-18.274L256,254.292l43.202,79.204
		c3.195,5.797,7.713,10.986,13.508,15.035C332.919,362.688,360.766,357.771,374.924,337.561z"/>
</g>
<path style="fill:#FF883E;" d="M381.345,299.914c1.754,6.267,2.132,12.895,1.044,19.373c-0.394,0.491-0.842,0.963-1.331,1.42
	c-10.263,9.509-35.801,8.082-57.054-3.21c-6.091-3.235-11.156-6.923-15.063-10.763L256,254.292l93.474-1.903L381.345,299.914z"/>
<path style="fill:#FFAB58;" d="M381.345,299.914L256,254.292l84.005-32.904c6.173-2.387,12.97-3.458,20.012-2.835
	c24.582,2.146,42.754,23.812,40.608,48.394C399.414,280.804,392,292.62,381.345,299.914z"/>
<path style="fill:#FF6638;" d="M137.076,337.561c-3.96-5.648-6.423-11.889-7.466-18.274L256,254.292l-43.202,79.204
	c-3.195,5.797-7.713,10.986-13.508,15.035C179.081,362.688,151.234,357.771,137.076,337.561z"/>
<path style="fill:#FF883E;" d="M130.655,299.914c-1.754,6.267-2.132,12.895-1.044,19.373c0.394,0.491,0.842,0.963,1.331,1.42
	c10.263,9.509,35.801,8.082,57.054-3.21c6.091-3.235,11.156-6.923,15.063-10.763l52.943-52.44l-93.474-1.903L130.655,299.914z"/>
<path style="fill:#FFAB58;" d="M130.655,299.914L256,254.292l-84.005-32.904c-6.173-2.387-12.97-3.458-20.012-2.835
	c-24.582,2.146-42.754,23.812-40.608,48.394C112.586,280.804,120,292.62,130.655,299.914z"/>
<path style="fill:#FF6638;" d="M293.573,114.06c-6.662-1.789-13.368-1.969-19.726-0.765L256,254.292l59.651-67.685
	c4.355-4.985,7.686-11.005,9.509-17.836C331.551,144.938,317.406,120.452,293.573,114.06z"/>
<path style="fill:#FF883E;" d="M256,120.902c5.289-3.792,11.388-6.414,17.847-7.607c0.596,0.203,1.193,0.461,1.789,0.765
	c12.446,6.392,19.839,30.878,16.497,54.711c-0.956,6.83-2.689,12.851-4.962,17.836L256,254.292l-33.758-87.186L256,120.902z"/>
<path style="fill:#FFAB58;" d="M256,120.902v133.39l-59.651-67.685c-4.355-4.985-7.686-11.005-9.509-17.836
	c-6.392-23.833,7.753-48.319,31.586-54.711C231.863,110.459,245.501,113.385,256,120.902z"/>
<g>
	<circle style="fill:#FF883E;" cx="256" cy="67.516" r="8.44"/>
	<circle style="fill:#FF883E;" cx="207.219" cy="73.942" r="8.44"/>
	<circle style="fill:#FF883E;" cx="161.758" cy="92.768" r="8.44"/>
	<circle style="fill:#FF883E;" cx="122.722" cy="122.722" r="8.44"/>
	<circle style="fill:#FF883E;" cx="92.768" cy="161.758" r="8.44"/>
	<circle style="fill:#FF883E;" cx="73.942" cy="207.219" r="8.44"/>
	<circle style="fill:#FF883E;" cx="67.516" cy="256" r="8.44"/>
	<circle style="fill:#FF883E;" cx="73.942" cy="304.781" r="8.44"/>
	<circle style="fill:#FF883E;" cx="92.768" cy="350.242" r="8.44"/>
	<circle style="fill:#FF883E;" cx="122.722" cy="389.278" r="8.44"/>
	<circle style="fill:#FF883E;" cx="161.758" cy="419.232" r="8.44"/>
	<circle style="fill:#FF883E;" cx="207.219" cy="438.058" r="8.44"/>
	<circle style="fill:#FF883E;" cx="256" cy="444.484" r="8.44"/>
	<circle style="fill:#FF883E;" cx="304.781" cy="438.058" r="8.44"/>
	<circle style="fill:#FF883E;" cx="350.242" cy="419.232" r="8.44"/>
	<circle style="fill:#FF883E;" cx="389.278" cy="389.278" r="8.44"/>
	<circle style="fill:#FF883E;" cx="419.232" cy="350.242" r="8.44"/>
	<circle style="fill:#FF883E;" cx="438.058" cy="304.781" r="8.44"/>
	<circle style="fill:#FF883E;" cx="444.484" cy="256" r="8.44"/>
	<circle style="fill:#FF883E;" cx="438.058" cy="207.219" r="8.44"/>
	<circle style="fill:#FF883E;" cx="419.232" cy="161.758" r="8.44"/>
	<circle style="fill:#FF883E;" cx="389.278" cy="122.722" r="8.44"/>
	<circle style="fill:#FF883E;" cx="350.242" cy="92.768" r="8.44"/>
	<circle style="fill:#FF883E;" cx="304.781" cy="73.942" r="8.44"/>
</g>
<g>
</g>
<g>
</g>
<g>
</g>
<g>
</g>
<g>
</g>
<g>
</g>
<g>
</g>
<g>
</g>
<g>
</g>
<g>
</g>
<g>
</g>
<g>
</g>
<g>
</g>
<g>
</g>
<g>
</g>
</svg>
