<?xml version="1.0" encoding="iso-8859-1"?>
<!-- Generator: Adobe Illustrator 19.0.0, SVG Export Plug-In . SVG Version: 6.00 Build 0)  -->
<svg version="1.1" id="Layer_1" xmlns="http://www.w3.org/2000/svg" xmlns:xlink="http://www.w3.org/1999/xlink" x="0px" y="0px"
	 viewBox="0 0 512 512" style="enable-background:new 0 0 512 512;" xml:space="preserve">
<circle style="fill:#4AB8A1;" cx="256" cy="256" r="256"/>
<path style="fill:#43A691;" d="M462.228,407.636l-67.556-166.9c-2.672-8.336-9.796-14.716-18.548-16.324
	c-0.148-0.332-0.296-0.668-0.448-0.996c-1.12-3.516-2.464-6.928-4-10.24c-1.112-3.52-2.464-6.94-4-10.252
	c-1.12-3.516-2.464-6.928-4-10.24c-1.752-5.512-4.04-10.792-6.792-15.776c-0.38-0.904-0.796-1.784-1.208-2.672
	c-1.12-3.516-2.464-6.928-4-10.24c-1.112-3.52-2.464-6.94-4-10.252c-1.12-3.516-2.464-6.928-4-10.24
	c-2.776-8.736-6.9-16.872-12.096-24.192C316.244,93.416,288.032,76,255.812,76c-48.524,0-88,39.476-88,88v2.048v2.048V176v2.048
	v2.048V224h-28c-13.2,0-24,10.8-24,24v2.048V252v0.096v1.952v2.048V392l37.164,98.356C184.508,504.244,219.34,512,256,512
	C340.62,512,415.624,470.916,462.228,407.636z"/>
<path style="fill:#E6E6E6;" d="M395.812,392c0,13.2-10.8,24-24,24h-232c-13.2,0-24-10.8-24-24V248c0-13.2,10.8-24,24-24h232
	c13.2,0,24,10.8,24,24V392z"/>
<path style="fill:#FFD464;" d="M395.812,392c0,13.2-10.8,24-24,24h-232c-13.2,0-24-10.8-24-24V248c0-13.2,10.8-24,24-24h232
	c13.2,0,24,10.8,24,24V392z"/>
<path style="fill:#E6BF5A;" d="M371.812,224h-16c13.2,0,24,10.8,24,24v144c0,13.2-10.8,24-24,24h16c13.2,0,24-10.8,24-24V248
	C395.812,234.8,385.012,224,371.812,224z"/>
<path style="fill:#CC803D;" d="M287.812,300c0-17.672-14.328-32-32-32s-32,14.328-32,32c0,10.1,4.692,19.092,12,24.956V352
	c0,11.044,8.952,20,20,20s20-8.956,20-20v-27.044C283.12,319.092,287.812,310.1,287.812,300z"/>
<path style="fill:#E6E6E6;" d="M319.812,196h24v-32c0-48.524-39.476-88-88-88s-88,39.476-88,88v60h24v-60c0-35.288,28.712-64,64-64
	s64,28.712,64,64V196z"/>
<path style="fill:#B37035;" d="M243.812,352v-27.044c-7.308-5.864-12-14.856-12-24.956c0-16.316,12.22-29.752,28-31.728
	c-1.312-0.164-2.64-0.272-4-0.272c-17.672,0-32,14.328-32,32c0,10.1,4.692,19.092,12,24.956V352c0,11.044,8.952,20,20,20
	c1.372,0,2.708-0.14,4-0.408C250.684,369.744,243.812,361.676,243.812,352z"/>
<path style="fill:#F5F5F5;" d="M255.812,76c-48.524,0-88,39.476-88,88v12c6.624,0,12-5.372,12-12c0-41.908,34.092-76,76-76
	s76,34.092,76,76c0,6.628,5.376,12,12,12v-12C343.812,115.476,304.336,76,255.812,76z"/>
<circle style="fill:#FFD464;" cx="255.812" cy="300" r="12"/>
<path style="fill:#E6BF5A;" d="M255.812,288c-0.688,0-1.344,0.092-2,0.2c5.672,0.956,10,5.856,10,11.8s-4.328,10.84-10,11.8
	c0.656,0.104,1.312,0.2,2,0.2c6.624,0,12-5.372,12-12S262.436,288,255.812,288z"/>
<g>
	<rect x="115.812" y="244" style="fill:#FFF1CC;" width="280" height="16"/>
	<rect x="115.812" y="380" style="fill:#FFF1CC;" width="280" height="16"/>
</g>
<rect x="167.812" y="220" style="fill:#CCCCCC;" width="24" height="4"/>
<g>
</g>
<g>
</g>
<g>
</g>
<g>
</g>
<g>
</g>
<g>
</g>
<g>
</g>
<g>
</g>
<g>
</g>
<g>
</g>
<g>
</g>
<g>
</g>
<g>
</g>
<g>
</g>
<g>
</g>
</svg>
