<?xml version="1.0" encoding="iso-8859-1"?>
<!-- Generator: Adobe Illustrator 19.0.0, SVG Export Plug-In . SVG Version: 6.00 Build 0)  -->
<svg version="1.1" id="Layer_1" xmlns="http://www.w3.org/2000/svg" xmlns:xlink="http://www.w3.org/1999/xlink" x="0px" y="0px"
	 viewBox="0 0 512 512" style="enable-background:new 0 0 512 512;" xml:space="preserve">
<circle style="fill:#273B7A;" cx="256" cy="256" r="256"/>
<path style="fill:#121149;" d="M315.763,138.2l-79.667,251.837l106.349,106.986c77.559-27.822,137.787-92.005,160.134-172.006
	L315.763,138.2z"/>
<path style="fill:#FEE187;" d="M341.333,199.111c0-48.266-40.072-87.173-88.762-85.266c-43.625,1.708-79.357,36.821-81.77,80.413
	c-1.608,29.063,11.338,55.175,32.213,71.728c15.338,12.162,24.542,30.453,24.542,50.028v25.319h56.889v-25.328
	c0-19.446,8.971-37.776,24.259-49.795C328.571,250.59,341.333,226.345,341.333,199.111z"/>
<path style="fill:#FFC61B;" d="M255.426,113.807v227.526h29.018v-25.328c0-19.446,8.971-37.776,24.259-49.795
	c19.868-15.62,32.63-39.865,32.63-67.1C341.333,151.793,302.814,113.498,255.426,113.807z"/>
<path style="fill:#E03A00;" d="M270.079,345.643h-28.158c-2.301,0-4.198-1.808-4.305-4.106l-4.022-85.333
	c-0.055-1.179,0.374-2.327,1.186-3.179c0.812-0.852,1.939-1.334,3.118-1.334h36.202c1.179,0,2.305,0.483,3.119,1.334
	c0.814,0.852,1.243,2,1.186,3.179l-4.022,85.333C274.277,343.835,272.381,345.643,270.079,345.643z M246.032,337.024h19.935
	l3.617-76.714h-27.169L246.032,337.024z"/>
<path style="fill:#940030;" d="M277.22,253.025c-0.814-0.852-1.939-1.334-3.119-1.334h-18.675v8.62h14.158l-3.617,76.714h-10.542
	v8.62h14.653c2.301,0,4.198-1.808,4.305-4.106l4.022-85.333C278.461,255.026,278.031,253.878,277.22,253.025z"/>
<circle style="fill:#D1D1D1;" cx="256" cy="369.778" r="28.444"/>
<path style="fill:#BABABA;" d="M256,341.333c-0.193,0-0.381,0.026-0.574,0.029v56.83c0.193,0.003,0.381,0.029,0.574,0.029
	c15.71,0,28.444-12.734,28.444-28.444S271.71,341.333,256,341.333z"/>
<path style="fill:#FFEDB5;" d="M227.268,367.623h57.463c4.601,0,8.332-3.731,8.332-8.332v-20.399c0-4.601-3.731-8.332-8.332-8.332
	h-57.463c-4.601,0-8.332,3.731-8.332,8.332v20.399C218.936,363.892,222.667,367.623,227.268,367.623z"/>
<path style="fill:#FEE187;" d="M284.732,330.559h-29.306v37.064h29.306c4.601,0,8.332-3.731,8.332-8.332v-20.399
	C293.064,334.289,289.333,330.559,284.732,330.559z"/>
<g>
</g>
<g>
</g>
<g>
</g>
<g>
</g>
<g>
</g>
<g>
</g>
<g>
</g>
<g>
</g>
<g>
</g>
<g>
</g>
<g>
</g>
<g>
</g>
<g>
</g>
<g>
</g>
<g>
</g>
</svg>
