<?xml version="1.0" encoding="iso-8859-1"?>
<!-- Generator: Adobe Illustrator 19.0.0, SVG Export Plug-In . SVG Version: 6.00 Build 0)  -->
<svg version="1.1" id="Layer_1" xmlns="http://www.w3.org/2000/svg" xmlns:xlink="http://www.w3.org/1999/xlink" x="0px" y="0px"
	 viewBox="0 0 512 512" style="enable-background:new 0 0 512 512;" xml:space="preserve">
<circle style="fill:#FF7F4F;" cx="256" cy="256" r="256"/>
<path style="fill:#DD4E22;" d="M161.34,362.134l144.92,144.92c100.597-20.028,179.948-98.992,200.523-199.39L369.778,170.658
	L161.34,362.134z"/>
<circle style="fill:#3F3F3F;" cx="256" cy="256" r="142.222"/>
<path style="fill:#282828;" d="M256,113.778c-0.193,0-0.381,0.014-0.574,0.014v284.415c0.193,0,0.381,0.014,0.574,0.014
	c78.546,0,142.222-63.676,142.222-142.222S334.546,113.778,256,113.778z"/>
<circle style="fill:#FFFFFF;" cx="256" cy="256" r="99.556"/>
<path style="fill:#DBDBDB;" d="M256,156.444c-0.193,0-0.381,0.014-0.574,0.014V355.54c0.193,0.002,0.381,0.014,0.574,0.014
	c54.984,0,99.556-44.573,99.556-99.556S310.982,156.444,256,156.444z"/>
<path style="fill:#282828;" d="M284.444,268.067H256c-6.665,0-12.067-5.403-12.067-12.067v-56.889
	c0-6.665,5.403-12.067,12.067-12.067c6.665,0,12.067,5.403,12.067,12.067v44.822h16.377c6.665,0,12.067,5.403,12.067,12.067
	C296.512,262.665,291.109,268.067,284.444,268.067z"/>
<g>
</g>
<g>
</g>
<g>
</g>
<g>
</g>
<g>
</g>
<g>
</g>
<g>
</g>
<g>
</g>
<g>
</g>
<g>
</g>
<g>
</g>
<g>
</g>
<g>
</g>
<g>
</g>
<g>
</g>
</svg>
