<svg width="20" height="20" viewBox="0 0 20 20" fill="none" xmlns="http://www.w3.org/2000/svg">
<path d="M17.5362 2.63615L2.03044 8.38706L6.62949 10.2107C7.97379 10.743 9.04182 11.7628 9.59901 13.0461L11.5095 17.4352L17.5362 2.63615ZM19.2952 3.25615L13.2685 18.0571C12.8876 18.9934 11.7914 19.4725 10.82 19.1298C10.5833 19.0463 10.3672 18.9171 10.1853 18.7502C10.0033 18.5833 9.85952 18.3823 9.76282 18.1598L7.85139 13.7689C7.47955 12.9137 6.76745 12.2343 5.87139 11.8798L1.2733 10.0561C0.317107 9.67706 -0.119084 8.62342 0.299012 7.7016C0.401726 7.47628 0.55011 7.27257 0.735624 7.10219C0.921138 6.93182 1.14012 6.79815 1.37996 6.70888L16.8857 0.95615C17.2225 0.826929 17.5917 0.795036 17.9474 0.864436C18.3031 0.933836 18.6296 1.10147 18.8863 1.3465C19.143 1.59154 19.3186 1.90317 19.3913 2.24268C19.464 2.58219 19.4306 2.93461 19.2952 3.25615Z" fill="white"/>
</svg>
