<svg width="16" height="16" viewBox="0 0 16 16" fill="none" xmlns="http://www.w3.org/2000/svg">
<path d="M8.66671 10.6667H7.33337C6.96671 10.6667 6.66671 10.3667 6.66671 10H2.00671V12.6667C2.00671 13.4 2.60671 14 3.34004 14H12.6667C13.4 14 14 13.4 14 12.6667V10H9.33337C9.33337 10.3667 9.03337 10.6667 8.66671 10.6667ZM13.3334 4.66667H10.6667C10.6667 3.19333 9.47337 2 8.00004 2C6.52671 2 5.33337 3.19333 5.33337 4.66667H2.66671C1.93337 4.66667 1.33337 5.26667 1.33337 6V8C1.33337 8.74 1.92671 9.33333 2.66671 9.33333H6.66671V8.66667C6.66671 8.3 6.96671 8 7.33337 8H8.66671C9.03337 8 9.33337 8.3 9.33337 8.66667V9.33333H13.3334C14.0667 9.33333 14.6667 8.73333 14.6667 8V6C14.6667 5.26667 14.0667 4.66667 13.3334 4.66667ZM6.66671 4.66667C6.66671 3.93333 7.26671 3.33333 8.00004 3.33333C8.73337 3.33333 9.33337 3.93333 9.33337 4.66667H6.66004H6.66671Z" fill="white"/>
</svg>
