<svg width="16" height="16" viewBox="0 0 16 16" fill="none" xmlns="http://www.w3.org/2000/svg">
<path d="M8.00004 1.3335C6.25337 1.3335 4.83337 2.7535 4.83337 4.50016C4.83337 6.2135 6.17337 7.60016 7.92004 7.66016C7.97337 7.6535 8.02671 7.6535 8.06671 7.66016C8.08004 7.66016 8.08671 7.66016 8.10004 7.66016C8.10671 7.66016 8.10671 7.66016 8.11337 7.66016C9.82004 7.60016 11.16 6.2135 11.1667 4.50016C11.1667 2.7535 9.74671 1.3335 8.00004 1.3335Z" fill="white"/>
<path d="M11.3866 9.43342C9.52664 8.19342 6.49331 8.19342 4.61997 9.43342C3.77331 10.0001 3.30664 10.7668 3.30664 11.5868C3.30664 12.4068 3.77331 13.1668 4.61331 13.7268C5.54664 14.3534 6.77331 14.6668 7.99997 14.6668C9.22664 14.6668 10.4533 14.3534 11.3866 13.7268C12.2266 13.1601 12.6933 12.4001 12.6933 11.5734C12.6866 10.7534 12.2266 9.99342 11.3866 9.43342Z" fill="white"/>
</svg>
