<svg width="18" height="16" viewBox="0 0 18 16" fill="none" xmlns="http://www.w3.org/2000/svg">
<path d="M15.3833 1.32506C13.1833 -0.174943 10.4666 0.525057 8.99997 2.24172C7.53331 0.525057 4.81664 -0.183277 2.61664 1.32506C1.44997 2.12506 0.716641 3.47506 0.666641 4.90006C0.549974 8.13339 3.41664 10.7251 7.79164 14.7001L7.87497 14.7751C8.50831 15.3501 9.48331 15.3501 10.1166 14.7667L10.2083 14.6834C14.5833 10.7167 17.4416 8.12506 17.3333 4.89172C17.2833 3.47506 16.55 2.12506 15.3833 1.32506ZM9.08331 13.4584L8.99997 13.5417L8.91664 13.4584C4.94997 9.86672 2.33331 7.49172 2.33331 5.08339C2.33331 3.41672 3.58331 2.16672 5.24997 2.16672C6.53331 2.16672 7.78331 2.99172 8.22497 4.13339H9.78331C10.2166 2.99172 11.4666 2.16672 12.75 2.16672C14.4166 2.16672 15.6666 3.41672 15.6666 5.08339C15.6666 7.49172 13.05 9.86672 9.08331 13.4584Z" fill="white"/>
</svg>
