<svg width="20" height="20" viewBox="0 0 20 20" fill="none" xmlns="http://www.w3.org/2000/svg">
<path d="M9.378 12.5H17C17.2652 12.5 17.5196 12.3946 17.7071 12.2071C17.8946 12.0196 18 11.7652 18 11.5V3.5C18 3.23478 17.8946 2.98043 17.7071 2.79289C17.5196 2.60536 17.2652 2.5 17 2.5H3C2.73478 2.5 2.48043 2.60536 2.29289 2.79289C2.10536 2.98043 2 3.23478 2 3.5V11.5C2 11.7652 2.10536 12.0196 2.29289 12.2071C2.48043 12.3946 2.73478 12.5 3 12.5C3.26522 12.5 3.51957 12.6054 3.70711 12.7929C3.89464 12.9804 4 13.2348 4 13.5V16.513L9.378 12.5ZM3 0.5H17C17.7956 0.5 18.5587 0.81607 19.1213 1.37868C19.6839 1.94129 20 2.70435 20 3.5V11.5C20 12.2956 19.6839 13.0587 19.1213 13.6213C18.5587 14.1839 17.7956 14.5 17 14.5H10.042L3.598 19.308C3.44929 19.419 3.27264 19.4863 3.08781 19.5026C2.90299 19.5189 2.71727 19.4835 2.55144 19.4003C2.38561 19.317 2.24621 19.1893 2.14882 19.0314C2.05144 18.8735 1.99991 18.6915 2 18.506V14.5C1.46957 14.5 0.960859 14.2893 0.585786 13.9142C0.210714 13.5391 0 13.0304 0 12.5V3.5C0 2.70435 0.31607 1.94129 0.87868 1.37868C1.44129 0.81607 2.20435 0.5 3 0.5V0.5Z" fill="white"/>
</svg>
