<?xml version="1.0" encoding="UTF-8" standalone="no"?> <svg width="512" height="512" viewBox="0 0 512 512" fill="none" xmlns="http://www.w3.org/2000/svg">
<path fill-rule="evenodd" clip-rule="evenodd" d="M128 24C70.5624 24 24 70.5624 24 128V384C24 441.438 70.5624 488 128 488H384C441.438 488 488 441.438 488 384V128C488 70.5624 441.438 24 384 24H128ZM40 128C40 79.3989 79.3989 40 128 40H384C432.601 40 472 79.3989 472 128V384C472 432.601 432.601 472 384 472H128C79.3989 472 40 432.601 40 384V128ZM160 100C144.536 100 132 112.536 132 128C132 143.464 144.536 156 160 156H324V228H160C144.536 228 132 240.536 132 256C132 271.464 144.536 284 160 284H324V356H160C144.536 356 132 368.536 132 384C132 399.464 144.536 412 160 412H336C360.301 412 380 392.301 380 368V144C380 119.699 360.301 100 336 100H160ZM148 128C148 121.373 153.373 116 160 116H336C351.464 116 364 128.536 364 144V368C364 383.464 351.464 396 336 396H160C153.373 396 148 390.627 148 384C148 377.373 153.373 372 160 372H332C336.418 372 340 368.418 340 364V276C340 271.582 336.418 268 332 268H160C153.373 268 148 262.627 148 256C148 249.373 153.373 244 160 244H332C336.418 244 340 240.418 340 236V148C340 143.582 336.418 140 332 140H160C153.373 140 148 134.627 148 128Z" fill="url(#paint0_linear)"/>
<defs>
<linearGradient id="paint0_linear" x1="64" y1="64" x2="448" y2="448" gradientUnits="userSpaceOnUse">
<stop stop-color="#FF003D"/>
<stop offset="1" stop-color="#3D00EB"/>
</linearGradient>
</defs>
</svg>
