<?xml version="1.0" encoding="UTF-8" standalone="no"?> <svg width="512" height="512" viewBox="0 0 512 512" fill="none" xmlns="http://www.w3.org/2000/svg">
<path d="M32 128C32 74.9807 74.9807 32 128 32H384C437.019 32 480 74.9807 480 128V384C480 437.019 437.019 480 384 480H128C74.9807 480 32 437.019 32 384V128Z" fill="#597DDC"/>
<path fill-rule="evenodd" clip-rule="evenodd" d="M128 32C74.9807 32 32 74.9807 32 128V368C32 412.183 67.8172 448 112 448H368C412.183 448 448 412.183 448 368V112C448 67.8172 412.183 32 368 32H128Z" fill="#6EBAFF"/>
<path d="M200 108C188.954 108 180 116.954 180 128C180 139.046 188.954 148 200 148H236V364H160C148.954 364 140 372.954 140 384C140 395.046 148.954 404 160 404H352C363.046 404 372 395.046 372 384C372 372.954 363.046 364 352 364H276V136C276 120.536 263.464 108 248 108H200Z" fill="white"/>
</svg>
