<?xml version="1.0" encoding="UTF-8" standalone="no"?> <svg width="512" height="512" viewBox="0 0 512 512" fill="none" xmlns="http://www.w3.org/2000/svg">
<path fill-rule="evenodd" clip-rule="evenodd" d="M128 24C70.5624 24 24 70.5624 24 128V384C24 441.438 70.5624 488 128 488H384C441.438 488 488 441.438 488 384V128C488 70.5624 441.438 24 384 24H128ZM40 128C40 79.3989 79.3989 40 128 40H384C432.601 40 472 79.3989 472 128V384C472 432.601 432.601 472 384 472H128C79.3989 472 40 432.601 40 384V128ZM160 100C144.536 100 132 112.536 132 128C132 143.464 144.536 156 160 156H324V228H176C151.699 228 132 247.699 132 272V368C132 392.301 151.699 412 176 412H352C367.464 412 380 399.464 380 384C380 368.536 367.464 356 352 356H188V284H336C360.301 284 380 264.301 380 240V144C380 119.699 360.301 100 336 100H160ZM148 128C148 121.373 153.373 116 160 116H336C351.464 116 364 128.536 364 144V240C364 255.464 351.464 268 336 268H180C175.582 268 172 271.582 172 276V364C172 368.418 175.582 372 180 372H352C358.627 372 364 377.373 364 384C364 390.627 358.627 396 352 396H176C160.536 396 148 383.464 148 368V272C148 256.536 160.536 244 176 244H332C336.418 244 340 240.418 340 236V148C340 143.582 336.418 140 332 140H160C153.373 140 148 134.627 148 128Z" fill="url(#paint0_linear)"/>
<defs>
<linearGradient id="paint0_linear" x1="64" y1="64" x2="448" y2="448" gradientUnits="userSpaceOnUse">
<stop stop-color="#FF003D"/>
<stop offset="1" stop-color="#3D00EB"/>
</linearGradient>
</defs>
</svg>
