<?xml version="1.0" encoding="UTF-8" standalone="no"?> <svg width="512" height="512" viewBox="0 0 512 512" fill="none" xmlns="http://www.w3.org/2000/svg">
<path fill-rule="evenodd" clip-rule="evenodd" d="M128 24C70.5624 24 24 70.5624 24 128V384C24 441.438 70.5624 488 128 488H384C441.438 488 488 441.438 488 384V128C488 70.5624 441.438 24 384 24H128ZM40 128C40 79.3989 79.3989 40 128 40H384C432.601 40 472 79.3989 472 128V384C472 432.601 432.601 472 384 472H128C79.3989 472 40 432.601 40 384V128ZM188 128C188 121.373 193.373 116 200 116H248C259.046 116 268 124.954 268 136V364C268 368.418 271.582 372 276 372H352C358.627 372 364 377.373 364 384C364 390.627 358.627 396 352 396H160C153.373 396 148 390.627 148 384C148 377.373 153.373 372 160 372H236C240.418 372 244 368.418 244 364V148C244 143.582 240.418 140 236 140H200C193.373 140 188 134.627 188 128ZM200 100C184.536 100 172 112.536 172 128C172 143.464 184.536 156 200 156H228V356H160C144.536 356 132 368.536 132 384C132 399.464 144.536 412 160 412H352C367.464 412 380 399.464 380 384C380 368.536 367.464 356 352 356H284V136C284 116.118 267.882 100 248 100H200Z" fill="url(#paint0_linear)"/>
<defs>
<linearGradient id="paint0_linear" x1="64" y1="64" x2="448" y2="448" gradientUnits="userSpaceOnUse">
<stop stop-color="#FF003D"/>
<stop offset="1" stop-color="#3D00EB"/>
</linearGradient>
</defs>
</svg>
