<svg width="24" height="24" viewBox="0 0 24 24" fill="none" xmlns="http://www.w3.org/2000/svg">
<path d="M15 22.75H9C3.57 22.75 1.25 20.43 1.25 15V9C1.25 3.57 3.57 1.25 9 1.25H15C20.43 1.25 22.75 3.57 22.75 9V15C22.75 20.43 20.43 22.75 15 22.75ZM9 2.75C4.39 2.75 2.75 4.39 2.75 9V15C2.75 19.61 4.39 21.25 9 21.25H15C19.61 21.25 21.25 19.61 21.25 15V9C21.25 4.39 19.61 2.75 15 2.75H9Z" fill="white"/>
<path d="M22 9.25H2.03003C1.62003 9.25 1.28003 8.91 1.28003 8.5C1.28003 8.09 1.62003 7.75 2.03003 7.75H22C22.41 7.75 22.75 8.09 22.75 8.5C22.75 8.91 22.41 9.25 22 9.25Z" fill="white"/>
<path d="M22 16.25H2.03003C1.62003 16.25 1.28003 15.91 1.28003 15.5C1.28003 15.09 1.62003 14.75 2.03003 14.75H22C22.41 14.75 22.75 15.09 22.75 15.5C22.75 15.91 22.41 16.25 22 16.25Z" fill="white"/>
<path d="M8.51001 22.74C8.10001 22.74 7.76001 22.4 7.76001 21.99V2.01001C7.76001 1.60001 8.10001 1.26001 8.51001 1.26001C8.92001 1.26001 9.26001 1.60001 9.26001 2.01001V21.98C9.26001 22.4 8.93001 22.74 8.51001 22.74Z" fill="white"/>
<path d="M15.51 22.74C15.1 22.74 14.76 22.4 14.76 21.99V2.01001C14.76 1.60001 15.1 1.26001 15.51 1.26001C15.92 1.26001 16.26 1.60001 16.26 2.01001V21.98C16.26 22.4 15.93 22.74 15.51 22.74Z" fill="white"/>
</svg>
